<svg xmlns="http://www.w3.org/2000/svg" viewBox="0 0 345.5 341.9"><path d="M157.4 249.7c-.3-.7-12-6-13-6l-46 16.9c-13.8 13.2-52.6 68.1-71.8 66.6-2.9-.2-4.3-2.8-7.1-2.9s-5.2 3.7-10.9 2.9c-13.3-1.9-10.8-4 5.4-22.4s35.9-34.2 53.4-51.3c7.6-7.4 15.1-14.9 22-23l.4-1.4c-2.9-2.7-4.7 4-2.7-7.9s18.3-37.5 25.3-48.5c15-23.8 34.5-53.6 55.2-72.4 6.2-5.6 23.1-16 26.8-21.1 10.9-14.8 8.8-41.6 22.1-58.7 17.9-22.9 56.4-27.6 78.8-9 2.4 2 6.7 9.3 10 11s15.2 2.8 20.5 4.5c3.4 1.1 22.6 9.2 19.4 13.9l-36.7 13.6c-4.7 8-11.4 14.8-12.2 25.2s2 4.9 9.2 32.6-.3 48.8-13.7 72.6-32.6 41.2-57.1 53.1l-3.2 13.3 30.9 32.9c5.8-1.5 13-1.6 18.2-2.7s6.8-5 13.9-2.5c4.9 1.8 5.3 5.3 6.8 6.2s3.8.5 5.7 1.3c4.8 2 7.2 8.2 6.2 13.2-1.6-.2-1.3-2.3-3-3.5-8.1-6.1-8.2 3.3-16.9 1.5 1.4 5.7 7 9.4 2.5 16-.6 0-1.9-7.7-6.4-8.6-11.5 8.2-24.2-9-34.6-9.4-5.3-.2-12 4-19.9 3-5.2-.7-7.4-6.8-12.4-2.5-1.7 1.4-1.6 4.6-4 5.4-1.9-16.6 15.3-14.2 26.4-15 1.5-.1 2.9.8 2.5-1.5L220 254.6c-4-1.5-6.8-3.2-9.5-6.5l-21.2 1.7c-3 2.5-12 11.4-11.5 15l27 45.3c12 6.9 31.1-4 42.1 5.2 5 4.1 3.4 7.5 4.7 12.2s4.9 7.6 1.8 13.7c-3 .6 1.3 2.6-2.9-4.5s-6.4-2.4-10.4-2.5c-2.1-.1-8-3.6-8.6-3l2 10c-3.2 1.1-4.3-3.3-6.6-3.8s-5.5 1.4-10.2 0c-7.8-2.3-16.2-16-20.8-17.1s-11 3.2-18.6-1.3c-4-2.3-5.3-8.2-11.4-5.1-2 1.1-1.5 3.1-3.2 3.3-.5-9.3 6.1-12 14.4-10.9 3.4.4 6.5 2.6 10.1 2.9 1.5.1 3 .6 2.5-1.5-7.3-12.7-14.6-25.7-22.9-37.9-2.8-4.3-8.1-7.9-8.9-13-.2-2.1.5-6.2-.2-7.3z"/></svg>