<svg xmlns="http://www.w3.org/2000/svg" viewBox="0 0 300 342"><path d="M259.8 308.1c-.6-.3-.6-1.8-1.4-2-5.2-1.1-9.1 5.2-17.8 2-7.2-2.6-17.1-18.5-21.6-25.2-4.3-6.5-9-12.8-11.7-20.2.2-3.2 1-.5 1.7.2 1.3 1.2 2.5 2.7 4.3 3.3.2-2.7-1-6 1.5-8l5.5 6c-3.4-13.9 2.3-29.1 12.5-38.9l1 2 5.5-5v4c4-1.9 4-6.9 6.4-10 3.4-4.4 12-10.2 16.5-15.4 29.6-34 41.1-78 34.9-122.6-1.3-9.7-4.8-14.6-7.7-23.2-4.9-14.7-5.3-20.2-15.4-33.5-16.9-22-43.2-26.3-68.4-15.8-4.2 1.8-10.2 6.5-13.4 7.5-10.5 3.2-22.3 2.3-34.5 7.3-6 2.5-14.8 7-17.1 13.2 13.8 3.3 33 3 46.1 7.2 6.8 2.2 17.9 11.5 20.7 18.2 10.5 24.3-10.5 25.9-26.6 35.2-18.3 10.7-34.8 28-48.7 44-16.7 19.3-30.1 41.2-52.3 55.3l11.5-3.5v2L45 231.6l.5 1.5c7.1-4.1 14.9-9.2 22.3-12.5 1.7-.7 3.2-.9 1.1 1.1-22.3 12.4-44.2 25.5-63.8 41.9l26.7-6.2 28.1-10.7L1 309.1c12.4.9 24-4.6 33.8-11.5 1.9-1.4 4.1-5.4 6-3.9l-13 12.5c17-3 30.1-13.5 41.4-25.9.8 1.8-1.8 4.7-2.7 6.3-1.8 3-3.6 6-5.8 8.7 15.6-4.2 28.8-16.2 39.4-27.9 3.5-3.9 15.4-21 17.5-22.4 2.4-1.5 7.5-1.2 10.4-2.6-1.5 5.4 6.1-2.3 7.5-1v5l4.5-6 1.5 5 5-10-3.5 19.9 3.5-4-2 14 5-5v8l4-3c-.6 4.5 2.9 7.1 4.7 10.7 2.4 5 15.8 37.5 13.2 40.1l-16-1 1 2h-3l1-2c-6.1 1.1-14 2.1-14 10 8.2-9.1 8.7-.3 13.9.6 3.3.5 8-1.6 11.5-1.6 13 0 23.8 7 35.9 10 4.5 1.1 9.4-1 13.4 4 .4-1.5-.5-2.2-1.2-3.3-2.5-4.3-9-6.6-.3-7.7 5.4 0 7.8 2.8 11.5 6-.4-6-5.1-10.2-8-14.9 4.3.3 8.1-1.4 12.5-1 3.4.3 6.6 2.6 9.2 2.8 6.2.5 13.7 2 18.7 2.3 1.7.1 3.4-1 4.8-.8 2.6.4 3.6 3.6 5.6 4.7l-2-8 13-.5c-4.6-6.6-12.7-6.3-19.2-9.5ZM221 14.1c7.4-2.2 10.1 8.7 3.6 10.6-7.4 2.1-10.1-8.7-3.6-10.6m-24.4 294.8c-1.2.5-5.4 4.1-4.2 5.2 4.5-.9 9.1-2 13 1.5-8.4 1.7-17.5 2.5-22.9-5.2-4.9-7.1-14.5-34-15-42.6-.2-2.7-.9-8.2 2-9.5.6 3.1 1.1 8.1 4 10 3.5-7.5 1-16 1.9-23.5.3-2.4 1.2-4.6 4-4.4l.5 4c5.2-4.4 7-8.4 14.5-9 1.1 1.2-5.2 11.2-6 13.5-1.1 3.4 3.6-1.4 3 2-.6 3.5-4.1 7.2-3 11.5 1.8 0 4-7.9 6-6-2 4.6-2.8 9.2-1 13.9l5-5c2 8.4 23.1 31.8 23 38.4 0 8.2-19 2.9-24.8 5.2"/></svg>