<svg xmlns="http://www.w3.org/2000/svg" viewBox="0 0 308 290"><path d="M93.7 62c-.4-1.7.7-2 1.5-3 7.2-9.4 19.7-18.1 27.4-27.5l24.9-1L177.7.7l50.1-.7 31.4 30.5c-3 1.1-6.4.3-9.5.5s-2.9-.8-2.5 1.5L308 93h-20.4l-1.5 3.4-.2 74.3-35.2 31.2-1.5-16c-1.9-1.9-29.2 13.8-33.9 15v35h35.4c6.3 0 18.6 19.6 20.4 25.5l-21.9 21.5v-38l-36.9 12-1-14.5-44.8-7.5V226l-12 5.5V278l19.3-9.8 20.6 21.8h-74.8l12.9-14.5 15 4c0-1.2-5.2-15.3-5.9-16-3.1-3.2-9.9-.2-14-1.9l-7.6-12.4-56.2 25.9 1-16-52.8 1 44.2-27.9.7-3c-14.1 2.6-27.8 6-42.3 5-2.5-.2-15.2-1.2-14.5-4.5 5.4-5.6 11.4-10.5 17-16 41-40.8 81.4-82.2 122.6-123 3.8-3.8 2.5-5.9 9.4-6.6s16.3 1.6 24.5 1l-1.5-5-18.9-18H93.9Zm95.5-34.8c-4.9-4.6-15.5 1.5-10.8 9.3s18.4-2.1 10.8-9.3"/></svg>