<svg xmlns="http://www.w3.org/2000/svg" width="827" height="1024"><path d="M126.102 50.617c4.181-17.166 29.27-31.25 49.076-32.351 2.641-.66 11.444-5.282 18.486-7.482 43.795-18.706 79.226-8.143 85.608-5.282 6.162 3.081 25.528 15.405 38.073 24.648 20.467 10.564 26.629 27.289 34.331 34.772 14.745 18.486 32.131 30.59 54.798 49.516 24.648 18.706 43.134 53.478 45.555 60.96 5.722 2.641 13.865 10.123 32.131 16.065 68.883 8.583 129.183 120.6 152.07 197.846 15.625 16.505 11.884 64.701 19.366 75.705 9.903 15.185 28.169 129.403 38.513 141.727 2.861 5.062.88 23.328 6.602 38.513 3.081 8.363 17.826 61.841 25.528 75.925 11.444 20.907 22.007 72.844 34.111 89.79 36.972 51.937 44.675 91.11 54.578 105.855 1.541 3.521-2.641 10.123-6.382 4.842-3.081-3.741-3.081-4.842-4.842-3.521-3.741 3.521-6.382 5.722-4.842 11.224 4.622 7.482-.66 11.884 5.062 19.807 6.382 10.564 18.486 40.053 23.328 53.038-1.1 18.046-4.181 24.648-25.528 20.247-10.343-2.421-16.946-11.884-21.567-23.988-3.741-5.282-13.204-3.741-17.606-.88-22.447 35.872-98.373 23.768-115.318 4.622-16.505-19.807-63.381-99.253-72.624-113.338-18.046-5.942-49.737-43.795-54.358-66.242-.66-3.961-6.602-3.301-8.363-1.761-7.482 21.787-7.262 30.37-.88 36.092 5.502 11.884-3.521 21.567-15.625 21.347-46.876-3.301-79.887 1.541-84.068.44-2.201-2.861-25.308 0-22.007-10.784 2.421-4.401 10.784-12.764 17.386-19.146 2.641-2.861 7.923-2.861 13.865-2.861 9.243 0 11.004.22 18.926-.66 3.521-1.32 5.062-3.521 16.065-5.282 4.622-12.984 25.308-26.629 29.05-31.25 5.282-4.401 3.741-7.262 6.822-11.884 1.541-5.502.88-9.463-2.861-12.544-25.969-16.946-63.381-27.289-80.327-38.073-14.525-5.942-25.088-5.282-27.509-.44-8.363 16.946-18.266 23.768-21.127 27.949-4.842 7.262-9.683 11.004-12.984 11.444-5.502 0-16.505 17.386-26.849 34.111-7.703 12.324-2.861 33.231 3.741 34.111 2.861-1.1 4.401-3.741 15.625 1.761 2.861 3.741 4.401 6.822 7.482 12.104-.22 4.401-2.201 9.243-12.984 10.123-10.784.22-21.127.44-25.749-.88-11.004-4.622-20.247-1.761-24.868 0-35.432-.44-59.2 1.761-66.682 0-9.023-2.861-4.622-8.803 8.363-13.424 4.181-1.1 12.984-2.641 24.648-3.741 10.123-1.541 15.185-7.262 17.606-14.745 7.262-20.907 27.949-31.03 34.331-40.053 4.842-6.162 13.645-16.505 16.065-25.308 7.923-7.482 6.822-20.907.66-30.15-8.803-11.884-12.984-31.25-22.227-40.934-47.536-51.937-65.142-91.55-79.446-110.037-15.405-10.784-33.011-53.038-43.795-101.894-3.741-16.285-16.946-29.27-33.011-102.334-8.583-35.212-22.447-78.566-1.761-125.662 8.583-11.884 7.262-29.27 14.745-50.837 0-10.123-3.301-22.668 2.861-29.49-.22-4.622 0-7.923-5.722-11.004-6.822-4.622-8.363-9.683-8.583-16.065-9.463-8.583-1.541-11.884-11.664-18.266-11.004-3.741-18.486-6.382-21.347-12.104-5.062-1.541-11.004-2.201-28.83-4.181-24.648-3.521-60.96-9.243-73.064-16.285-5.502-3.741-9.243-4.401-1.761-11.664 21.347-20.467 55.899-31.691 91.55-38.293 5.502 0 9.463-1.761 12.104-3.741 8.363-4.842 17.166-5.722 18.046-5.722z"/></svg>