<svg xmlns="http://www.w3.org/2000/svg" viewBox="0 0 264 127"><path d="M74.7 0c3.4 14.1 13.6 23.8 26.5 29.6s9 4 12 4.1c4.3.2 8-10 5.4-13.3l-3.1-.6 4.1-3.5-3.1-5.4c7.4-.6 21.6-5.6 28.2-1.8s1.4 2.5 2.4 2.8c4.8 1.5 11.1-.7 11.2 7.9-9.5-3.2-14.9 7.6-9.3 15 19.2-3.6 34.6-15.3 40.9-33.9H264v1c-6.4 10.7-12.8 21.5-22.4 29.8l-23.4 13.9h16.9c-11 16.7-27.1 26.9-47.8 22.8 2.6 4.1 7.7 3.7 11.8 4.6s2.4-.1 2.1 1.3c-11.7 4.2-24.1 7.7-36.7 6.8l-8.6-20.7c-4 10.6-8.1 19.8-16.4 27.8l9.9-4c2.5 9.4 10.7 14.3 17.9 19.8l-12.5 5-7.4-5.9c-.7 3.8 2.3 6 4 8.9-7.7 2.9-12.5 10.1-18.3 14.9-5-6.9-11.7-11.5-18.5-16.4l2.9-8.3c-1.9.8-2.4 3.8-4.4 5-4.9 2.8-8.3-3.2-13.5-3l10.5-6.9 7.5-12.9 9.9 4c-3.3-4.1-7.4-7.6-10.2-12.2s-4-10.2-6.3-15.6L99.6 79.9c-11.3 2-22.3-2.2-32.9-5.5-.2-2.6 0-1.6 1.5-2 3.1-.7 6.9-.3 8.5-4-20.9 4.8-35.9-8.7-47.8-23.8h16.9l-13.6-6.8C17.7 29.1 7 15.3 0 0zm63.4 12c-.5.1-2 1.3-1.1 1.9 2.6 3.7 5.3 3.8 8.5.5-1.6-2-4.9-3.1-7.4-2.4"/></svg>