<svg xmlns="http://www.w3.org/2000/svg" viewBox="0 0 462.3 369.3"><path d="m410.4 15.9-1 4c8 .4 18.1 3 25.7 5.7 10.9 3.9 23.7 10.5 27.2 22.2-12.7 3-29.2-1.1-41.2 1.2s-2.6 2.4-3.2 2.6c-2 .6-6.2-2.5-6.5 4.1l-2-2-1 5-1.5-3-3.5 9-2-4-1 9-2-2c-2.1 7.3-.6 13.8 1 21l-3-1.5c.7 3.6 3.7 6.9 4.9 10.1s-2.8-.9-2 2c1.9 6.6 4.8 12.9 5 20l-4-8.5c-.2 4.4 2.4 11.4 2 15.4s-3.6 9.7-4 13.6c-1.8.2-1-2.2-.9-3.4.2-2.1 2.4-7.3-.1-8.6-1.8 6.8-4.5 22.1-8.9 27.3s-2.3.3-3.1 1.3c-1.5 1.8-1.9 7.2-4.9 8.3 1.9-7.4 5.8-14.5 7.5-21.9s1.3-3.3-.5-3c-5.3 13.7-12.6 26.8-19.8 39.6-4.9 8.6-10.8 20.4-17.2 27.7s-2.2 2.9-2 0c1.8-2 3.3-4.2 4.5-6.5 1.1-2.1 3.6-5.6 3-8-6.4 7.1-10.2 16.3-16.5 23.4s-2.2 2.9-2 0c.8.1 3.7-5.1.5-2.5l-33.4 41.4c-2.2 1.1-.6-1.5-.2-2.2 1.2-2.4 2.7-4.6 4.2-6.8.2-.7-.9-.7-1.5-.5-1.2.5-16.6 18.8-16.1 20 4.2 3.4 7.6 3.6 7.6 9.9-4.6-.6-9.9 2.6-14.2 1.8-3.6-.7-10.8-7.7-12.3-7.6l-6.5 5.7 2.5-7-9.5 9c-.5-1.1 6.6-10.7 2.5-9s-8.5 8.2-8.5 9.4c.6 2.4 2.4 5.1 4 7s3.4 1.8 4 3.5l-14.3 1.9-11.6-20.4-5 1.5c5.5-21.4-16.1-.9-17-2l4-11-10 9 6-9.5c-2.4-1.6-3.9 3.1-6 3.5l2.5-6-15 13c-4.1 1.8 2.6-8.2 1-9l-18.5 13 8-14.5c.2-.7-.8-.7-1.5-.5-1.4.5-16.1 11.4-17.9 13.1-25 24-46.7 60.2-71 85.7s-7.1 8.3-10.5 6.5c-5.8-2.9 3.6-15.7 3-16.5l-5.7 2.9c-1 .4-1.9-.6-2.2-1.5-1.4-4.6 1.1-15.5 2.1-20.5s1.9-2-.8-1.7l-46 35.9-1.3-2.3 9.3-24.6c-11 8.9-20.9 20.3-32 28.9s-9 7.3-10.4 6l4.5-7 48.4-49.4c-.8-1.5-2.4.2-3.3.7-7.7 4.3-27.7 19.7-35 19.4s-1.7-.7-2.7-.7l.9-3.5c25.8-23.2 57.5-42.6 82.9-65.8 3.4-3.1-4.1.1-4.7.2-3.3.3-4.4-1.7-2.8-4.7 12.5-13 28.1-23.1 41.4-35.5l-2-1.1c-.6-2.7 2.8-6.3 4.5-8.4 14.8-18.1 38-34.7 54.2-52.2 1.4-1.7.1-3.7.7-5.7 1.2-4.4 22.7-26.5 27.5-31.5 8-8.4 18.8-20.2 27.5-27.4 15.1-12.4 36.1-20.6 51.4-33.5 21.8-18.4 28.4-45.3 55.2-57.6C365-2.3 384.5-3 399.9 8.1c3.4 2.4 5.4 7 10.1 7.5Zm-20-4.1c-1.4-6.7-10.8-4.7-16-5-.5 3.1.8 1.6 2.4 2s12.4 3.9 13.5 3Zm-28.9-.9c-11.1.2-23.8 8.3-30.5 16.9s-1.9 1.3-1.5 3l11-2-2-1.5c1.1-2.4 14.7-7.2 18-6.5l-6-2 3-1.5-3-1.5 11-5Zm44.4 23.9c7.6-.4 15.3.3 23 0l26.5 6.5c-7.8-7.8-18.9-14.9-29.9-15l4 3.5c-3.6-1.1-3.6 1.6-6.2 2.4-5.6 1.7-14.7 0-20.8 2.6 0 2.4 2.9 0 3.5 0Zm-67.4 20h-14l12.5-3 7.4 1c-.4-1.7-4.4-2.2-5.9-2.5s-4-.6-6-.5c2-3.8.5-1.8-1-4l6-1-8-1 7-2-6-1 2-3-2-.5 10-7.5c-10.9 2.2-19.9 10.9-26 19.9l7-2-.5 2 3.5 1c-3.9 1.6-10.4 6.1-11 10.5s-.1 1.7 1.4 1.4c4.3-1 9.8-4.2 14.5-5.4s7.5.7 9-2.4Zm20-5c-2.4-5.4-5-7.9-3.9-14.4.3-2.1 2.6-3.8 1.5-5.5-7.7 6-5.3 15.3 2.5 20Zm69.4-12h-25c-.2 0-2.9 1-2.5 2 11.7-.8 23.2-1.1 34.9 0l-7.5-2ZM280.6 78.7c8.3-3.3 21.7-6.7 23-17zm42.9-11c-12.9 1.1-24.7 7-36.3 12.1-10.6 4.7-24.3 10.9-34.3 16.7s-11 5.5-12.3 10.1c4.9 4.2 47.4-22.6 54.9-26.5s8.9-4.3 13.3-6.6zm-2 100.8 11-8.5c16.5-15.2 36.6-43.7 29.2-67.2-8.1-25.9-40.6-7.3-56.2-.2-.2 1.8 2.2.9 3.2.7 2.9-.5 5.7-2.1 8.7-1.7l-6 4.5c5.2 3.3 24.1-12.9 25.9-11.5 1.7 4-1.7 7.9-4.3 10.6s-16.4 12.8-20.1 14.3-1.7.2-1.5-.5l2-3.5-13.5 7 1.5-4c-1.2-.9-15.2 9.5-17 8l2-3.5c.2-.7-1-.7-1.5-.5-3.8 1.6-9.8 6.7-14 8s1.6-4.7-2-4l-10 7 .5-4c-4.5 2.1-9.6 4.5-14.6 4.9s-7.3-1-8.7-.7c-2.1.5-16.8 15.5-14.7 19.8 2.1 2.1 29.2-18.5 30.9-17-2.8 4.5-7 8.2-9.8 12.7s-2.1 2.6-.7 3.3l12.5-8-2 3.5c-.2.7.9.7 1.5.5 5.5-2.3 15.2-14.2 21-15.9s1.7.1 1.5 1.5c-.4 2.5-4.3 7.5-4 9l2.4 1.4 24.1-16.8 2 5 12-11-1.5 9 13.5-13c2.8-.6 2 4.8 4 6l12-13.9-1 9c3.6-4 5.3-9.3 8.3-13.7s-.2-1.9 2.2-1.3v8l4-5c-1.5 17.2-15.3 32.5-26.9 44.4.9 1.6 2.3-.3 3.1-.9 10.8-7 21.5-19.4 25.9-31.5 2.2.2.3 5.2 0 6.4-3.2 10.9-10.2 19.6-17.3 28.1s-1.1.4-1.6.4l.5 2 9-8c.7-.2.7 1 .5 1.5-.9 2-9.4 12.1-11.5 14.5-4.5 5.2-10.3 9.4-14.5 14.9Zm-45.9-70.8-27 11.5-1.9 2.5c10.4-.7 21-7.4 29-14Zm99.8 45.9c3.1-13.4 12.4-24.8 13-38.9l-6 17-2-4-2 5-1-7c.9 8.5-1 16.6-2.6 24.9s-1.3 3.3.5 3Zm-115.8 1-19 9 2-2.5c-16 1.6-28.4 14.9-41.9 23 4.9 0 9.6-4.8 13.9-7.1 1.5-.8 3.3-.8 1 1l-58.9 40.5c5.3-2 10.7-5.1 15.6-7.8 30.2-16.5 60.4-34.4 87.2-56.1Zm-41.9 10-9-1.4-42.9 34.3zm43.8-.9-123.7 81.7c2.3-.2 4.6-1.7 6.7-2.8 17.5-9 35.9-19.9 52.9-29.9 23.7-13.9 46.7-29 70.2-43.1l-.6-2c-2.9.4-5.2-3.6-5.5-3.8Zm37.1 4.9c-3.6.4-7.9 2-11.5 2.1s-8-2-9.5-1.5-18.8 12.3-20.8 14c-2.9 2.5-6.6 5.5-6 9.8 1.6 4.9 14.4-2.1 17.9-2.3-3.6 4-8.6 7.3-13.1 10.4-57.1 39.3-119.7 70.2-180.7 102.9l-3 2.5c38.7-18.5 77.1-37.7 114.5-58.7 36.7-20.6 80.8-46.4 110.5-76.2.9-.9 2.2-.8 1.7-2.8Zm-57 55.8c14.3-6.6 28.1-16.2 40.4-26s15-12.2 20.5-18.4 6.7-7.7 6-8.5c-20.9 19.3-43.5 36.7-66.9 52.9m-6.9-18.9-4.5-6-120.3 78.8 124.8-72.9Zm20.9 67.8c-2.1-1.9-6.7 5.9-6.8 6.7-.2 1.4 2 2.7 1.9 4.3 1.3.9 4.6-9.6 5-11Z"/></svg>