<svg xmlns="http://www.w3.org/2000/svg" viewBox="0 0 197 285"><path d="M71.6 179.9c0-.5 1.1-1.5 1.1-2.4l18.8 6.4c0 .6-6.7 6.2-7.8 8.1-2.5 4.3-2.4 15.4-7.6 15.3s-20.9-4.5-22.5-3l3.8 11.4c-.2.8-12.3 9.1-13.3 9.6s-1.7.2-1.5-.5c2.2-4.7 7.9-6 7-11.9s-5.5-9.5-6.3-10.2c-2.6-2.4-10.4-3.2-13.6-1.8S16.2 212 15.6 212.8c-2.3 3.4 1.3 8.6 1.1 12.5-2.6.6-1.7-.8-2.6-1.9-2.3-3.1-4.4-6.4-6.4-9.6 0-1.8 19.9-21.7 22.7-22.3l39.5 5.7c.5-.2 1.7-1 1.7-1.4 0-4.6-.7-11.8 0-15.9"/><path d="M112.4 20.9c-2.9.2-5.2-1.3-8.2-.8S73.7 31.5 71.2 33c-7.5 4.6-12.9 22.4-2 26.6 14.4 5.9 33.3 8.4 47.2 14.6 2.4 1 4.3 3.1 6 5 15.5 18 27.9 43.6 43.4 62.2l9.4 40.9L91.5 129c-4.7-10.8-6.5-23.7-8-35.4h-3c2 10.4-5.4 32.2 2.6 39.7l95.5 66.9c5.5 24.2 13.1 50.1 17.2 74.5s2.5 9.3-.3 10.1-16.1-3-16.5-7.2l-11.8-51.5c-3-.9-2.1 3.6-2 5.5.4 7.5 1.6 15.4 2 22.9s0 15 .6 22.5c-18.3 4.7-10.3-21.1-16-30.9-2.4-.5-1.4 1.9-1.5 3.5-.1 3.5-.3 21.8-1.4 23.5-1.8 2.5-15-1.2-17-3.1-3.9-3.7-1.5-7.5-1.5-11.4.1-21.2.9-42.3.5-63.3-.8-1.4-4.4-2.3-6-2-2.8.4-9.9 13.3-10.4 16.6s.8 12.6-1 13.9c-3.6 1.4-22.3.7-23.5 2.4-2.3 3.1 5.5 7.8 5.1 11.1-.2.8-9.3 11.5-10 11.9s-1.7.2-1.5-.5l4.8-11.8c-5.2-6.4-14.5-13.9-22.8-8.2s-11 14.4-11.5 15.5c-1.9 4.2 3.4 8 4.5 11.9-2.3 1.8-10.2-7.9-11.8-9.6l15.5-26.3 41.1-4c1.3-1.4-4.6-30.5-6.2-34.1s-1.5-2.4-2.8-3.2L45.6 156c-9.1-15.1-26.8-30.2-31.8-47S4.5 74.3 1.3 58.8c-.9-4.1-1.8-6.7-1-11 2-11.7 11.1-26.1 13.6-38.2C17.8 3 43.4 2.4 51.1 0l12.1 8c10.9 1.5 27.4-2 37.6.2 4 .9 9.4 9.2 11.7 12.7Zm-55.9-8.8c-4.8-3-10.8 4.2-5.2 7.7s8-6 5.2-7.7"/></svg>