<svg xmlns="http://www.w3.org/2000/svg" viewBox="0 0 308 274.1"><path d="M93.7 61.8c-.4-1.7.7-2 1.5-3 7.2-9.4 19.7-18.1 27.4-27.4l24.9-1L177.7.7l50.1-.7 31.4 30.4c-3 1.1-6.4.3-9.5.5s-2.9-.8-2.5 1.5L308 92.7h-20.4l-1.5 3.4v73.6l-35.8 31.6-1-15.9c-1.4-.2-2.7 0-4 .5-12.2 3.5-33.8 17.2-46.5 23.3-28.2 13.7-57 26.6-85.1 40.5-14.3 7.1-31.4 18.2-46.1 23.7-1.2.5-2.3 1.1-3.7.8l1-15.9-52.8 1 50.8-33.9c-15.5 5.1-30.9 8.9-47.4 8S-.7 232 0 228.7c5.4-5.6 11.4-10.5 17-16 41-40.6 81.4-81.9 122.6-122.5 3.8-3.8 2.5-5.9 9.4-6.6s16.3 1.6 24.5 1l-1.5-5-18.9-17.9H93.8Zm95.5-34.7c-4.9-4.6-15.5 1.5-10.8 9.3s18.4-2.1 10.8-9.3"/></svg>