<svg xmlns="http://www.w3.org/2000/svg" viewBox="0 0 553 696.6"><path d="M255.1 27.8c11.1 9 19.4 8.4 32.2 13.2 13.3 5 28.7 13.1 37 25l-37.6 11.4c-20.9 7.4-39.2.6-52.2 21.8s-9.3 23.9-7 38.2c9.5 4.7 19.4 10.1 27.8 16.7 36.5 28.7 69.7 62.8 101.6 96.4 18.4 19.4 33.2 46.5 44.5 70.5-3.2 1-4.9-4.3-7.7-5.3s-5-1.1-4.3 1.3l30.7 51.3-.3 2.3-6-4c-2.2-.7 6.5 16.7 7 18 1.1 3.2 1.2 6.7 2.2 9.8 5.1 14.7 13.7 33.6 16.8 48.2.4 2 .6 4 .4 6.1l-2.5-2c-1.4-.3-1.9 0-1.5 1.5 1.3 4.4 10.2 16.7 13.2 21.8 13.4 23.6 26.9 47.8 39 72 15.2 30.4 26.5 62.7 42.7 92.3 9.6 17.6 33 42.8 15.5 62.2-8.2 2.7-41.4-17.5-54.7-17.5s-20.4 6-25.6 4.1-6.3-4.3-8.4-5.6c-15.7-10.5-31.5-27.7-44.2-41.8-23.5-25.9-44.1-54.3-65.8-81.7l-2.2-.9c-4.8.4-32.6 26.2-37.5 31.1-8.7 8.7-19.1 19.7-26.9 29.1s-13.8 14.6-11.5 19.5c6.2 13.3 44.1 12.4 56 20 10.1 6.5 19.9 23.8 15.4 36h-2.9c-1-10.2-17.2-29.8-27.5-29.8-9.4 0-2.6 10-8.2 11.7s-25.2-10-32-12.6c-10.3-3.9-19.8-7.8-30.5-2.9-10.9 5-22.2 18.9-35.1 12.8l-9.2 10.9c-1.5.2-1.8.1-1.4-1.4 1-4.4 12-21.7 9.9-24.6-2.9.9-6.5 1.8-9.5 2-10.7.8-29.3 3.1-39 2s-3.7-2.5-6-5.9c-5-7.4-22.4.7-28.4 4.5s-12 11.4-14.1 9.4c2.2-8.8 12-20.2 19.7-24.8 4-2.4 9.3-2.8 11.3-6.7-3.9-2.3-6.7 2.2-10 3-8.2 2.2-8.2-7.1-12.7-7.4s-5.8 12.2-8.8 13.9c-2.3-1.7-1.4-4.5-1.5-7-8.9-1.8-26.9 5.8-34-.5s-2-5-4-6c-7.9-3.9-18.4 12.6-23 17.5-1.9-12.9 4.3-18.8 13.5-26 10.3-8.1 16.5-9.9 30-9.1 7.9.5 13.8 3.9 21.9 3 26.5-3.2 39.1-13.8 57.2-31.3 13-12.6 36.6-34.2 46.9-47.6.8-1.1 1.9-2 2.2-3.5-2.5-4.4-6.9-8-9.1-12.6s-1.5-7-3.1-8.9-8.8-6.3-11.5-4c.8-5.6-2.8-5.5-5.9-7.6s-1.1-3.4-5.5-3.3-6.2 1.1-12.2-1-12.9-8.2-13.9-8c-6.4 1.2 7.7 13.7-3.6 11.6s-19.8-15.2-28.4-20.6c-3 0-6.7 8.8-11.5 6.6s-10-9.7-12-12.1c-12.2-13.9-28.9-37.9-36.2-54.8s-7.4-24.9-12.8-36.7l-4 3.5c-10.9-14.7-17.9-31.8-24-49-11.8-33-31-94.8-18-128.1s23.6-25.2 32.6-36.4 11.8-50.1 16-69 9.7-38.7 23-54c31.2-36.6 81.8-61.6 128.4-40 11.8 5.5 15.8 13 30 16 4.9 1 17.6 1.2 20.8 3.7Zm44.1 491.9c-9.4-3.8-18.9-11.7-28.1-15.4s-5.6-2.9-8.2-.9-7.3 17.9-9.6 22.5c-5.2 10.4-14 15.4-21.9 23.1-15.4 15.2-33.9 31.5-48 47.3-8.3 9.3-12.8 14.8-2.5 25.2 13 13.1 34.9 10.7 49.9 2.9 16.1-8.3 53.1-46.4 65.6-61.4 1.3-1.5 8.1-10.5 8.5-11.5 2.1-5.3-2-10.6-3.2-15.8-1.2-5.3-1.6-10.7-2.5-16"/></svg>