<svg xmlns="http://www.w3.org/2000/svg" viewBox="0 0 342.2 341.2"><path d="M187.9 249.5c-.7 1.1 0 5.2-.2 7.3-.8 5.1-6.1 8.7-8.9 13-8.3 12.2-15.6 25.2-22.9 37.9-.5 2.1 1 1.6 2.5 1.5 3.6-.3 6.7-2.5 10.1-2.9 8.3-1.1 14.9 1.6 14.4 10.9-1.7-.2-1.2-2.2-3.2-3.3-6.1-3.1-7.4 2.8-11.4 5.1-7.6 4.5-14 .2-18.6 1.3s-13 14.8-20.8 17.1c-4.7 1.4-7.9-.5-10.2 0s-3.4 4.9-6.6 3.8l2-10c-.6-.6-6.5 2.9-8.6 3-4 .1-6.2-4.6-10.4 2.5s.1 5.1-2.9 4.5c-3.1-6.1.5-9 1.8-13.7s-.3-8.1 4.7-12.2c11-9.2 30.1 1.7 42.1-5.2l27-45.3c.5-3.6-8.5-12.5-11.5-15l-21.2-1.7c-2.7 3.3-5.5 5-9.5 6.5l-27.4 30.5c-.4 2.3 1 1.4 2.5 1.5 11.1.8 28.3-1.6 26.4 15-2.4-.8-2.3-4-4-5.4-5-4.3-7.2 1.8-12.4 2.5-7.9 1-14.6-3.2-19.9-3-10.4.4-23.1 17.6-34.6 9.4-4.5.9-5.8 8.6-6.4 8.6-4.5-6.6 1.1-10.3 2.5-16-8.7 1.8-8.8-7.6-16.9-1.5-1.7 1.2-1.4 3.3-3 3.5-1-5 1.4-11.2 6.2-13.2 1.9-.8 4.2-.4 5.7-1.3s1.9-4.4 6.8-6.2c7.1-2.5 8.7 1.4 13.9 2.5s12.4 1.2 18.2 2.7l30.9-32.9-3.2-13.3c-24.5-11.9-43.7-29.3-57.1-53.1S32.9 140 40.1 112.3s10-22.2 9.2-32.6-7.5-17.2-12.2-25.2L.4 40.9c-3.2-4.7 16-12.8 19.4-13.9 5.3-1.7 17.2-2.8 20.5-4.5s7.6-9 10-11c22.4-18.6 60.9-13.9 78.8 9 13.3 17.1 11.2 43.9 22.1 58.7 3.7 5.1 20.6 15.5 26.8 21.1 20.7 18.8 40.2 48.6 55.2 72.4 7 11 23.3 36.6 25.3 48.5s.2 5.2-2.7 7.9l.4 1.4c6.9 8.1 14.4 15.6 22 23 17.5 17.1 37.2 32.9 53.4 51.3s18.7 20.5 5.4 22.4c-5.7.8-8.1-3-10.9-2.9s-4.2 2.7-7.1 2.9c-19.2 1.5-58-53.4-71.8-66.6l-46-16.9c-1 0-12.7 5.3-13 6Z"/></svg>