<svg xmlns="http://www.w3.org/2000/svg" width="777" height="448"><path d="M305.249 120.181C273.934 53.884 221.742 0 169.834 0 117.079 0 64.323 58.398 33.008 126.106 9.028 178.861 0 237.259 0 278.167c0 93.944 76.171 169.834 169.834 169.834s169.834-76.171 169.834-169.834c0-41.753-9.31-104.383-34.418-157.985zM132.877 390.166c-37.521.847-37.521-27.647-37.521-27.647 2.257-24.544 20.03-19.184 43.164-20.03s42.035 16.927 43.164 26.801c.847 9.874-11.284 20.03-48.806 20.877zm115.949-180.272c0 18.337 14.952 27.93 18.056 36.957 3.103 9.31 6.489 27.083-2.821 30.751-13.824 5.078-26.237-4.514-44.574-16.081s-7.617 10.721-7.617 10.721 17.773 28.493 17.773 55.295-21.441 18.337-21.441 18.337-30.468-25.108-69.683-25.108c-39.214 0-40.343 9.028-54.73 9.874-14.67.847-15.234-3.95-15.234-17.773s7.617-22.851 18.056-34.7c7.335-8.181 6.489-23.134-5.925-16.927s-37.521 15.234-38.368 0 22.287-35.265 22.287-49.934-32.161-29.904-33.854-41.471C29.34 158.268 47.678 94.51 81.532 93.664c33.008-.847 10.438 28.493 63.194 29.904h6.771c7.899-.282 21.723-.564 43.728-20.594 27.647-25.39 52.192-20.03 62.912-11.567s32.161 20.03 32.161 57.552c0 37.804-41.471 42.317-41.471 60.937z"/><path d="M116.232 208.201c-12.695 1.975-29.058-9.028-34.418-12.977-.847-.564-1.975-.282-2.257.847-6.489 24.544 6.206 23.98 12.413 25.955 6.489 1.975 2.539 6.489-.282 8.181-3.385 1.693-15.799-1.128-15.799-1.128.564 7.335 14.388 5.078 20.03 4.796 1.41 0 2.821-.564 3.95-1.693 6.489-5.642 29.622-25.955 16.363-23.98zm69.4 5.643c-11.849-.282 5.078 14.67 13.542 21.723 3.103 2.539 6.771 4.232 10.721 4.796 6.489.847 15.799.847 16.081-5.642 0 0-13.259 3.103-15.799 1.128s-7.053-6.206-.282-8.181c6.489-1.975 30.186-1.411 22.569-27.93-.282 0-30.186 14.388-46.831 14.106zm-10.72 20.312c-6.206 0-34.418 28.212-34.983 33.008-.282 4.514-7.053-31.033-26.237-30.186-19.184.564-12.977 13.259-11.003 19.184s16.645 17.491 21.159 17.773c0 0-13.824-13.541-13.824-18.902s1.41-7.053 5.36-7.053 9.31 3.103 12.695 10.72c2.539 5.925 6.206 13.824 7.617 17.491.564 1.128 1.411 1.693 2.821 1.693.847 0 1.975-.564 2.257-1.128 3.95-5.642 21.441-28.776 31.879-28.776 11.849 0 7.053 12.413 3.95 14.952-3.103 2.821-9.874 7.617-20.03 9.592 0 0 13.824 3.95 29.622-11.567 15.799-14.952-3.385-26.801-11.284-26.801zm309.199-77.3H451.95l-14.388 43.446h-42.599l48.524-165.038h49.652l48.242 165.038h-42.317zM601.189 35.265c7.053 0 13.542 1.128 19.184 3.668s10.72 6.206 14.67 10.721c3.95 4.796 7.335 10.156 9.31 16.927q3.385 9.734 3.385 22.005c0 7.899-1.128 15.234-3.385 21.723s-5.36 12.131-9.31 16.927-9.028 8.463-14.67 11.003-12.131 3.95-19.184 3.95h-12.413v58.116h-37.803V35.267h50.217zm160.806 37.239h-63.758v26.801h46.831v37.239h-46.831v26.519h63.758v37.239H660.998V35.264h100.997zM502.73 279.013h-64.04v26.519h47.114v37.239h-47.113v26.519h64.04v37.239H401.452V241.773h101.279zm134.005 97.048c-2.821 3.95-6.206 7.899-10.156 11.567s-8.181 7.053-12.977 9.874-10.156 5.078-15.799 6.771-11.849 2.539-18.056 2.539h-.282c-9.874 0-18.62-1.693-26.237-4.796-7.617-3.385-13.824-7.899-18.902-13.541s-9.028-12.695-11.849-20.594-4.232-16.645-4.796-26.237v-34.136c0-8.746 1.41-17.209 3.95-25.39 2.539-7.899 6.489-14.952 11.849-20.877 5.078-5.925 11.567-10.721 19.184-14.388s16.645-5.36 26.519-5.36h.282q15.234.846 24.544 5.078c6.206 3.103 11.284 6.489 14.952 10.438s6.489 7.899 8.463 11.849q2.963 5.925 5.078 9.31l-30.468 20.312c-.847-1.693-1.693-3.385-2.539-5.642s-2.257-3.95-3.95-5.642-3.95-3.385-6.206-4.514c-2.539-1.128-5.642-1.975-9.592-1.975-7.335 0-13.259 2.539-17.491 7.335-4.232 5.078-6.489 11.567-6.489 19.748v32.161c0 3.95.564 7.617 1.975 11.284 1.411 3.385 3.103 6.489 5.36 8.746 2.257 2.539 5.078 4.514 8.181 5.925s6.489 2.257 10.156 2.257c5.078.282 9.31-.847 12.413-2.539 3.103-1.975 5.642-4.232 7.335-7.335v-8.181h-17.491v-31.879h53.32v57.834zm140.212 0c-2.821 3.95-6.206 7.899-10.156 11.567s-8.181 7.053-12.977 9.874-10.156 5.078-15.799 6.771-11.849 2.539-18.056 2.539h-.564c-9.874 0-18.62-1.693-26.237-4.796-7.617-3.385-13.824-7.899-18.902-13.541s-9.028-12.695-11.849-20.594-4.232-16.645-4.514-26.237v-34.136c0-8.746 1.41-17.209 3.95-25.39 2.539-7.899 6.489-14.952 11.849-20.877 5.078-5.925 11.567-10.721 19.184-14.388s16.645-5.36 26.519-5.36h.282q15.234.846 24.544 5.078c6.206 3.103 11.284 6.489 14.952 10.438s6.489 7.899 8.463 11.849q2.963 5.925 5.078 9.31l-30.468 20.312c-.847-1.693-1.693-3.385-2.539-5.642s-2.257-3.95-3.95-5.642-3.95-3.385-6.206-4.514c-2.539-1.128-5.642-1.975-9.592-1.975-7.335 0-13.259 2.539-17.491 7.335-4.232 5.078-6.489 11.567-6.489 19.748v32.161c0 3.95.564 7.617 1.975 11.284 1.41 3.385 3.103 6.489 5.36 8.746 2.257 2.539 5.078 4.514 8.181 5.925s6.489 2.257 10.156 2.257c5.078.282 9.31-.847 12.413-2.539 3.103-1.975 5.642-4.232 7.335-7.335v-8.181h-17.491v-31.879h53.32v57.834z"/></svg>