<svg xmlns="http://www.w3.org/2000/svg" width="512" height="512"><path d="M256 0C114.615 0 0 114.615 0 256s114.615 256 256 256 256-114.615 256-256S397.385 0 256 0m0 128c70.692 0 128 57.308 128 128s-57.308 128-128 128-128-57.308-128-128 57.308-128 128-128m152.735 280.735C367.938 449.532 313.695 472 256 472s-111.938-22.468-152.735-63.265S40 313.696 40 256c0-57.695 22.468-111.938 63.265-152.735l33.941 33.941c-65.503 65.503-65.503 172.085 0 237.588C168.937 406.525 211.125 424 256 424s87.062-17.475 118.794-49.206c65.503-65.503 65.503-172.084 0-237.588l33.941-33.941C449.532 144.062 472 198.305 472 256s-22.468 111.938-63.265 152.735"/></svg>