<svg xmlns="http://www.w3.org/2000/svg" width="640" height="640"><path d="M.399 457.428c23.571 9.588 45.144 17.578 66.317 27.166 3.995 1.598 6.392 7.99 8.389 12.784 19.176 50.737 60.724 78.302 113.857 75.506 48.739-2.397 89.488-38.751 102.672-89.089 1.998-7.99 7.99-16.379 14.781-21.573 35.955-27.166 72.309-54.332 109.862-79.501 11.985-8.389 26.766-14.382 41.149-16.779 71.111-11.186 125.843-69.913 130.238-141.024 4.394-70.312-43.945-136.23-113.458-154.607-88.289-23.571-177.378 37.553-187.765 127.84-1.199 9.988-5.194 20.774-10.786 29.164-23.97 35.955-48.739 71.511-74.307 106.267-5.194 7.191-15.98 11.586-25.169 14.781-9.988 3.596-21.972 1.998-30.761 6.791-17.977 9.588-33.159 5.593-50.337-1.998-26.766-11.985-54.332-21.573-81.099-33.558C7.99 316.402 1.198 307.613.798 301.221c-.799-62.722-1.598-125.044 0-187.765C2.396 51.134 52.334 1.197 115.055.797c136.629-.799 272.859-1.199 409.488 0C588.064 1.196 638.8 51.933 639.2 115.454a23309 23309 0 0 1 0 409.488c-.399 63.521-51.136 113.857-115.056 114.257q-203.745 1.198-407.491 0C50.735 638.8 1.597 587.663-.001 521.746c0-19.975.399-40.749.399-64.319z"/><path d="M436.654 316.804c-56.729-.399-98.277-43.146-97.877-100.674.399-55.531 43.546-98.277 98.677-98.277 55.93 0 99.076 43.945 99.076 100.274.399 56.329-42.747 99.076-99.875 98.677zm.4-19.975c45.144.399 81.498-35.156 81.498-80.299.399-43.945-35.156-80.299-79.101-80.699-45.543-.399-81.897 34.357-82.697 79.101-1.199 44.744 35.156 81.498 80.299 81.898zM110.662 502.572c15.581 5.593 27.166 9.988 39.151 13.982 34.357 11.586 69.513-4.794 83.096-38.751 12.784-31.161-1.199-66.717-32.359-82.697-9.588-4.794-19.176-8.789-29.563-13.184 26.766-11.586 65.918 9.588 82.697 43.945 19.176 38.751 4.394 84.294-34.357 106.267-37.154 21.573-82.697 10.786-108.664-29.563z"/></svg>